<svg width="72" height="72" xmlns="http://www.w3.org/2000/svg" xmlns:xlink="http://www.w3.org/1999/xlink"><defs><linearGradient x1="60.232%" y1="40.81%" x2="36.713%" y2="63.187%" id="a"><stop stop-color="#D8DFF5" offset="0%"/><stop stop-color="#EAEFFB" offset="100%"/></linearGradient><linearGradient x1="100%" y1="29.079%" x2="7.082%" y2="72.666%" id="b"><stop stop-color="#AAB6D8" offset="0%"/><stop stop-color="#DAE1F1" offset="100%"/></linearGradient><linearGradient x1="5.292%" y1="27.918%" x2="99.78%" y2="71.979%" id="c"><stop stop-color="#8892AD" offset="0%"/><stop stop-color="#C5CFE3" offset="100%"/></linearGradient><linearGradient x1="60.232%" y1="40.863%" x2="36.713%" y2="63.111%" id="d"><stop stop-color="#D8DFF5" offset="0%"/><stop stop-color="#EAEFFB" offset="100%"/></linearGradient><linearGradient x1="0%" y1="44.245%" x2="100%" y2="1.691%" id="e"><stop stop-color="#C4CFEC" offset="0%"/><stop stop-color="#C5CFE3" offset="100%"/></linearGradient><linearGradient x1="93.854%" y1="8.024%" x2="12.357%" y2="95.475%" id="f"><stop stop-color="#AAB6D8" offset="0%"/><stop stop-color="#DAE1F1" offset="100%"/></linearGradient><linearGradient x1="5.292%" y1="6.738%" x2="99.78%" y2="93.06%" id="g"><stop stop-color="#8892AD" offset="0%"/><stop stop-color="#C5CFE3" offset="100%"/></linearGradient><linearGradient x1="5.292%" y1="36.744%" x2="99.78%" y2="63.194%" id="h"><stop stop-color="#8892AD" offset="0%"/><stop stop-color="#C5CFE3" offset="100%"/></linearGradient><linearGradient x1="0%" y1="41.747%" x2="130.511%" y2="60.452%" id="i"><stop stop-color="#6F7994" offset="0%"/><stop stop-color="#AFBAD1" offset="100%"/></linearGradient><linearGradient x1="100%" y1="34.392%" x2="7.082%" y2="66.909%" id="j"><stop stop-color="#A4B1CE" offset="0%"/><stop stop-color="#C4CDE6" offset="100%"/></linearGradient><linearGradient x1="50%" y1="-10.049%" x2="50%" y2="100%" id="l"><stop stop-color="#9BAAC1" offset="0%"/><stop stop-color="#6F85A4" offset="100%"/></linearGradient><path d="M21 34.781c-7.611 0-13.781-6.17-13.781-13.781 0-7.611 6.17-13.781 13.781-13.781 7.611 0 13.781 6.17 13.781 13.781 0 7.611-6.17 13.781-13.781 13.781zM19.622 14.11v8.747h2.618V14.11h-2.618zm2.587 11.01h-2.587v2.618h2.587v-2.619z" id="k"/></defs><g fill="none" fill-rule="evenodd"><path fill-opacity="0" fill="#FFF" d="M0 0h72v72H0z"/><path fill="url(#a)" d="M30.648.098l38.795 19.943L38.915 35.7.12 15.75z" transform="translate(1.5 27)"/><path fill="url(#b)" d="M38.84 35.7l30.603-15.66v6.017L38.84 41.646z" transform="translate(1.5 27)"/><path fill="url(#c)" d="M.12 15.82l38.666 19.89v5.806L.12 21.486z" transform="translate(1.5 27)"/><path fill="url(#d)" d="M26.087.809l34.578 17.775-25.98 13.235L.107 14.038z" transform="translate(6 12)"/><path fill="url(#e)" d="M51.252 13.713l8.229 1.93-11.572 9.444z" transform="translate(6 12)"/><path fill="url(#f)" d="M34.619 31.819l25.978-13.285v14.517L34.619 46.273z" transform="translate(6 12)"/><path fill="url(#g)" d="M.107 14.1L34.57 31.829v14.33L.107 28.303z" transform="translate(6 12)"/><path fill="url(#h)" d="M36.509 18l3.991 2.09-18.509 9.495L18 27.494zm7.5 4.5L48 24.59l-18.509 9.495-3.991-2.091z"/><path fill="url(#i)" d="M6 31.063l34.462 17.744v2.567L6 34.106z"/><path fill="url(#j)" d="M40.462 48.807l26.086-13.34-.014 2.636-26.072 13.27z"/><g transform="translate(33)"><circle fill-opacity=".7" fill="#F6F6F6" cx="21" cy="21" r="13.125"/><use fill="#FFF" xlink:href="#k"/><use fill="url(#l)" xlink:href="#k"/></g></g></svg>