<svg width="72" height="72" xmlns="http://www.w3.org/2000/svg"><defs><linearGradient x1="13.444%" y1="50%" x2="91.422%" y2="52.532%" id="a"><stop stop-color="#EBEEFB" offset="0%"/><stop stop-color="#E9EFFB" offset="100%"/></linearGradient><linearGradient x1="60.232%" y1="38.867%" x2="36.713%" y2="65.975%" id="b"><stop stop-color="#D8DFF5" offset="0%"/><stop stop-color="#EAEFFB" offset="100%"/></linearGradient><linearGradient x1="57.199%" y1="8.024%" x2="43.821%" y2="95.475%" id="c"><stop stop-color="#AAB6D8" offset="0%"/><stop stop-color="#DAE1F1" offset="100%"/></linearGradient><linearGradient x1="33.868%" y1="0%" x2="67.962%" y2="99.767%" id="d"><stop stop-color="#8892AD" offset="0%"/><stop stop-color="#C5CFE3" offset="100%"/></linearGradient><linearGradient x1="7.132%" y1="26.241%" x2="119.027%" y2="80.089%" id="e"><stop stop-color="#6F7994" offset="0%"/><stop stop-color="#C5CFE3" offset="100%"/></linearGradient><linearGradient x1="32.298%" y1="0%" x2="69.71%" y2="99.767%" id="f"><stop stop-color="#8892AD" offset="0%"/><stop stop-color="#C5CFE3" offset="100%"/></linearGradient><linearGradient x1="60.232%" y1="40.892%" x2="36.713%" y2="63.07%" id="g"><stop stop-color="#D8DFF5" offset="0%"/><stop stop-color="#EAEFFB" offset="100%"/></linearGradient><linearGradient x1="93.13%" y1="8.024%" x2="12.979%" y2="95.475%" id="h"><stop stop-color="#AAB6D8" offset="0%"/><stop stop-color="#DAE1F1" offset="100%"/></linearGradient><linearGradient x1="93.13%" y1="8.024%" x2="12.979%" y2="95.475%" id="i"><stop stop-color="#BAC7E3" offset="0%"/><stop stop-color="#D4DCF2" offset="100%"/></linearGradient><linearGradient x1="100%" y1="28.975%" x2="7.082%" y2="72.778%" id="j"><stop stop-color="#9FADD5" offset="0%"/><stop stop-color="#B8C3DD" offset="100%"/></linearGradient><linearGradient x1="95.578%" y1="8.024%" x2="10.878%" y2="95.475%" id="k"><stop stop-color="#AAB6D8" offset="0%"/><stop stop-color="#9BA6BF" offset="100%"/></linearGradient><linearGradient x1="0%" y1="0%" x2="100%" y2="100%" id="l"><stop stop-color="#3492FC" offset="0%"/><stop stop-color="#0060E2" offset="100%"/></linearGradient></defs><g fill="none" fill-rule="evenodd"><path fill="url(#a)" d="M27.77 21.73l27.768 14.13v.011L27.77 50.006 0 35.871z" transform="translate(6 3)"/><path fill="url(#b)" d="M5.593 2.36l-1.723.988L.652 1.543 2.375.554z" transform="translate(33 24)"/><path fill="url(#c)" transform="matrix(-1 0 0 1 42.463 24)" d="M3.87 5.912V2.36l1.723.989V6.9z"/><path fill="url(#d)" d="M3.87 3.371v3.53L.652 5.071v-3.53z" transform="translate(33 24)"/><path fill="url(#e)" d="M0 35.948l27.77 14.13v15.86L0 51.805z" transform="translate(6 3)"/><path fill="url(#f)" d="M0 14.14L27.77 0v44.131L0 29.996z" transform="translate(6 3)"/><path fill="url(#g)" d="M27.77 0l27.84 14.285v.012L27.84 28.432 0 14.14z" transform="translate(6 3)"/><path fill="url(#h)" d="M27.77 28.5l27.767-14.2v15.765L27.769 44.198z" transform="translate(6 3)"/><path fill="url(#i)" d="M27.77 50.136l27.767-14.2v15.765L27.769 65.834z" transform="translate(6 3)"/><path fill="url(#j)" d="M33.77 31.515L61.637 17.3v5.515L33.77 37.025zm0 21.562l27.868-14.214v5.515L33.77 58.587z"/><path d="M55.5 32.357c.828-.258 1.5-1.138 1.5-1.966 0-.829-.672-1.292-1.5-1.034-.828.257-1.5 1.137-1.5 1.965 0 .829.672 1.292 1.5 1.035zm0 21.714c.828-.257 1.5-1.137 1.5-1.966 0-.828-.672-1.291-1.5-1.034-.828.257-1.5 1.138-1.5 1.966 0 .828.672 1.291 1.5 1.034z" fill="url(#k)"/><path d="M19.622 22.313v11.221H8.4V22.313h11.222zm13.125 0v11.221H21.525V22.313h11.222zM19.622 9.188v11.221H8.4V9.188h11.222zm13.125 0v11.221H21.525V9.188h11.222zm-2.986 2.985h-5.25v5.25h5.25v-5.25z" transform="translate(33)" fill="url(#l)"/></g></svg>